<svg width="202" height="46" fill="none" xmlns="http://www.w3.org/2000/svg"><path d="M56.451.5h-8.489v7.247h6.122c2.04 0 3.755 1.77 3.755 4.045v10.322h-6.693v7.753h6.693V45.5h7.59V10.191C65.35 4.798 61.35.5 56.452.5zM17.467 11.604v8.284h-7.003c-1.566 0-2.801 1.352-2.801 2.958V45.5H0V20.733c0-4.987 3.79-9.13 8.486-9.13h8.981z" fill="#103A77"/><path fill-rule="evenodd" clip-rule="evenodd" d="M47.962 26.713v3.118l-20.692.16v1.839c0 1.838.706 3.597 1.881 4.796 1.098 1.2 2.744 1.999 4.468 1.999 2.743 0 5.016-1.839 5.957-4.397h7.838c-.627 2.638-1.96 4.956-3.684 6.875-2.586 2.718-6.114 4.397-10.032 4.397-7.917 0-14.266-6.795-14.266-15.19v-3.517c0-8.394 6.428-15.19 14.265-15.19 7.211 0 13.09 5.597 14.109 12.952.078.64.157 1.439.157 2.158zm-9.719-5.676c-1.097-1.199-2.743-1.998-4.467-1.998-3.135 0-5.722 2.398-6.27 5.516h12.462a7.06 7.06 0 00-1.725-3.518z" fill="#103A77"/><path d="M68.923.5h7.57v45h-7.57V.5z" fill="#103A77"/><path fill-rule="evenodd" clip-rule="evenodd" d="M108.516 26.713v3.118l-20.692.16v1.839c0 1.838.705 3.597 1.881 4.796 1.097 1.2 2.743 1.999 4.468 1.999 2.743 0 5.016-1.839 5.956-4.397h7.838c-.627 2.638-1.959 4.956-3.683 6.875-2.587 2.718-6.114 4.397-10.033 4.397-7.916 0-14.265-6.795-14.265-15.19v-3.517c0-8.394 6.427-15.19 14.265-15.19 7.211 0 13.089 5.597 14.108 12.952.079.64.157 1.439.157 2.158zm-9.719-5.676c-1.097-1.199-2.743-1.998-4.468-1.998-3.135 0-5.721 2.398-6.27 5.516h12.462a7.058 7.058 0 00-1.724-3.518z" fill="#103A77"/><path d="M126.314 38.418c3.197 0 5.914-2.466 6.394-5.649v-.08h7.832c-1.039 7.241-7.033 12.811-14.226 12.811-7.911 0-14.304-6.684-14.304-14.88v-4.137c0-8.195 6.393-14.88 14.304-14.88 7.353 0 13.426 5.81 14.226 13.289h-7.832c-.56-3.103-3.197-5.49-6.394-5.49-3.596 0-6.473 3.023-6.473 6.763v5.49c0 3.74 2.877 6.763 6.473 6.763zM142.286 38.169V45.5h8.571c4.897 0 8.897-4.298 8.897-9.607V.5h-7.591v20.81h-6.693v7.753h6.693v5.06c0 2.276-1.714 4.046-3.755 4.046h-6.122zM163.247.5h7.569v7.013h-7.569V.5zM163.247 11.604h7.569V45.5h-7.569V11.604zM184.533 38.146L202 19.042v-7.438h-27.948v7.438h17.468l-17.468 19.104V45.5H202v-7.354h-17.467z" fill="#103A77"/></svg>